{"title":"Katy Perry &amp; Nicki Minaj-Girls Just Wanna Have Fun.[HDTV Live].a","uid":6426606,"size":269478972,"categoryP":"video","categoryS":"music_videos","magnet":"?xt=urn:btih:b3dc43ca41d9a879c2bf5dba81e179e7e59c7bba&amp;dn=Katy+Perry+%26+Nicki+Minaj-Girls+Just+Wanna+Have+Fun.%5BHDTV+Live%5D.a&amp;tr=udp%3A%2F%2Ftracker.openbittorrent.com%3A80&amp;tr=udp%3A%2F%2Fopen.demonii.com%3A1337&amp;tr=udp%3A%2F%2Ftracker.coppersurfer.tk%3A6969&amp;tr=udp%3A%2F%2Fexodus.desync.com%3A6969","seeders":1,"leechers":1,"uploader":"wushan","files":1,"time":1306497254,"description":"Katy Perry &amp; Nicki Minaj-Girls Just Wanna Have Fun.[HDTV Live].\n\n      Format : AVI\n      Format/Info : Audio Video Interleave\n      File size : 257 MiB\n      Duration : 2mn 56s\n      Overall bit rate : 12.2 Mbps\n      Writing application : Lavf51.12.1\n   Video #0\n      ID : 0\n      Format : MPEG-4 Visual\n      Codec ID : DIV3\n      Codec ID/Hint : DivX 3 Low\n      Duration : 2mn 56s\n      Bit rate : 12.0 Mbps\n      Width : 1 920 pixels\n      Height : 1 080 pixels\n      Display aspect ratio : 16:9\n      Frame rate : 29.970 fps\n      Resolution : 24 bits\n      Bits/(Pixel*Frame) : 0.193\n      Stream size : 253 MiB (98%)\n   Audio #1\n      ID : 1\n      Format : MPEG Audio\n      Format version : Version 1\n      Format profile : Layer 3\n      Codec ID : 55\n      Codec ID/Hint : MP3\n      Duration : 2mn 56s\n      Bit rate mode : Constant\n      Bit rate : 192 Kbps\n      Channel(s) : 2 channels\n      Sampling rate : 44.1 KHz\n      Resolution : 16 bits\n      Stream size : 4.04 MiB (2%)\n      Alignment : Aligned on interleaves\n      Interleave, duration : 26 ms (0.78 video frame)\n      Writing library : LAME3.97","torrent":{"xt":"urn:btih:b3dc43ca41d9a879c2bf5dba81e179e7e59c7bba","amp;dn":"Katy+Perry+%26+Nicki+Minaj-Girls+Just+Wanna+Have+Fun.%5BHDTV+Live%5D.a","amp;tr":["udp%3A%2F%2Ftracker.openbittorrent.com%3A80","udp%3A%2F%2Fopen.demonii.com%3A1337","udp%3A%2F%2Ftracker.coppersurfer.tk%3A6969","udp%3A%2F%2Fexodus.desync.com%3A6969"],"infoHash":"b3dc43ca41d9a879c2bf5dba81e179e7e59c7bba","infoHashBuffer":{"type":"Buffer","data":[179,220,67,202,65,217,168,121,194,191,93,186,129,225,121,231,229,156,123,186]},"announce":[],"urlList":[]}}